<?xml version="1.0" standalone="no"?>
<!DOCTYPE svg PUBLIC "-//W3C//DTD SVG 20010904//EN"
 "http://www.w3.org/TR/2001/REC-SVG-20010904/DTD/svg10.dtd">
<svg version="1.0" xmlns="http://www.w3.org/2000/svg"
 width="1268.000000pt" height="1292.000000pt" viewBox="0 0 1268.000000 1292.000000"
 preserveAspectRatio="xMidYMid meet">

<g transform="translate(0.000000,1292.000000) scale(0.100000,-0.100000)"
fill="#000000" stroke="none">
<path d="M6095 12705 c-16 -2 -113 -9 -215 -15 -293 -17 -550 -48 -725 -86
-204 -45 -322 -73 -470 -115 -60 -17 -135 -37 -165 -44 -108 -28 -444 -146
-557 -196 -23 -11 -44 -19 -47 -19 -3 0 -49 -20 -102 -45 -53 -25 -97 -45 -99
-45 -9 0 -314 -153 -356 -177 -25 -16 -95 -56 -155 -91 -166 -96 -246 -147
-409 -261 -128 -89 -379 -274 -395 -291 -3 -3 -27 -23 -55 -45 -106 -85 -228
-196 -385 -355 -624 -629 -1093 -1327 -1404 -2090 -26 -63 -51 -124 -56 -135
-17 -37 -102 -277 -127 -359 -46 -152 -95 -345 -128 -501 -8 -38 -23 -108 -33
-155 -80 -358 -133 -1195 -102 -1615 35 -459 49 -573 111 -880 130 -642 291
-1075 644 -1744 84 -159 129 -231 320 -520 253 -381 395 -554 717 -874 357
-354 825 -721 1178 -923 36 -20 124 -72 195 -114 330 -195 789 -398 1185 -523
453 -144 798 -213 1260 -252 204 -18 902 -21 1075 -5 203 18 389 42 525 67 74
13 172 31 218 39 142 25 500 120 657 174 83 29 165 56 183 61 66 20 478 202
640 283 92 45 237 125 322 176 85 51 160 93 166 94 22 3 185 108 264 169 43
34 136 103 206 152 110 78 188 141 479 388 143 121 470 465 625 657 19 24 60
73 90 109 96 115 376 542 476 725 117 213 172 321 216 419 27 62 59 132 70
157 86 186 240 604 281 765 9 33 28 103 42 155 39 141 84 334 120 515 8 39 19
90 25 115 5 25 15 88 20 140 5 52 18 167 27 255 25 234 25 999 1 1205 -10 80
-22 186 -28 235 -5 50 -14 113 -20 140 -5 28 -19 102 -31 165 -40 222 -42 234
-113 495 -72 268 -82 300 -143 470 -53 148 -70 193 -140 370 -57 143 -253 539
-335 675 -113 188 -206 338 -244 391 -112 159 -308 416 -373 489 -412 460
-653 680 -1151 1054 -105 79 -309 218 -365 250 -16 9 -43 25 -60 35 -158 96
-519 287 -640 339 -54 23 -349 140 -395 156 -25 8 -76 27 -115 42 -91 34 -206
71 -275 89 -589 154 -856 205 -1250 240 -156 14 -610 27 -675 20z m-187 -1862
c1 -2 169 -3 372 -3 l370 0 1 483 c1 265 4 527 8 582 l6 100 55 -3 c157 -9
522 -69 880 -146 274 -58 727 -224 1045 -383 395 -197 745 -423 1093 -706 210
-170 548 -503 767 -754 102 -118 365 -475 448 -610 65 -106 237 -402 237 -409
0 -2 20 -47 45 -100 100 -212 160 -357 217 -519 119 -342 135 -395 193 -670 7
-33 21 -94 30 -135 25 -110 55 -368 78 -665 l2 -30 -258 -3 -257 -2 -9 22 c-5
13 -12 52 -16 88 -40 362 -123 722 -225 974 -75 189 -88 216 -103 216 -12 0
-212 -169 -342 -289 -71 -65 -141 -128 -213 -190 -35 -31 -62 -63 -62 -74 0
-10 16 -53 36 -95 62 -133 119 -308 148 -457 35 -175 46 -335 46 -652 l0 -313
615 -2 c468 -2 617 -6 626 -15 31 -31 -45 -621 -124 -963 -103 -447 -278 -928
-473 -1299 -148 -281 -207 -378 -327 -541 -39 -52 -95 -129 -126 -170 -100
-136 -353 -433 -455 -535 -244 -243 -404 -386 -636 -566 -158 -123 -473 -339
-590 -404 -256 -143 -313 -172 -414 -217 -386 -171 -378 -168 -666 -260 -171
-54 -247 -73 -445 -113 -93 -19 -189 -39 -212 -45 -23 -5 -119 -18 -215 -29
-95 -11 -216 -26 -269 -32 -53 -7 -103 -9 -111 -6 -20 7 -28 193 -28 665 l0
372 -367 -2 -368 -3 -7 -40 c-4 -22 -7 -252 -7 -512 -1 -462 -1 -472 -21 -478
-24 -8 -392 37 -540 66 -327 63 -678 157 -900 239 -47 18 -101 37 -120 42 -19
6 -39 13 -45 17 -5 4 -32 16 -60 26 -117 43 -441 201 -613 298 -264 150 -681
449 -887 635 -524 475 -927 955 -1199 1430 -207 361 -397 805 -486 1137 -12
44 -26 94 -31 110 -13 42 -36 141 -65 275 -68 314 -94 495 -101 711 -5 176 -5
186 13 194 27 12 381 18 429 8 l39 -9 13 -79 c7 -44 18 -116 23 -160 32 -253
62 -405 127 -649 33 -126 104 -318 119 -323 12 -4 127 85 329 257 66 56 142
121 170 143 27 23 67 58 89 78 l39 35 -37 105 c-102 284 -134 519 -145 1049
l-6 315 -594 3 c-351 1 -599 6 -605 12 -8 6 -9 39 -4 112 13 172 38 398 55
493 36 209 84 436 108 520 120 413 112 390 214 635 87 210 82 197 216 455 80
154 143 260 242 410 131 199 157 235 312 428 440 550 945 1002 1481 1327 58
35 112 69 120 76 29 24 426 220 570 281 251 107 315 130 575 207 205 61 225
66 615 141 62 12 382 47 520 57 l35 3 5 -585 c3 -322 7 -586 8 -587z"/>
<path d="M4410 11155 c-25 -13 -128 -64 -230 -113 -581 -283 -1020 -625 -1415
-1103 -175 -211 -351 -504 -451 -749 -19 -47 -39 -94 -45 -105 -15 -33 -75
-226 -98 -316 -90 -360 -106 -829 -45 -1244 15 -97 28 -161 65 -310 27 -111
66 -221 121 -343 15 -35 28 -66 28 -68 0 -13 103 -208 155 -294 108 -178 222
-318 425 -520 277 -278 427 -377 1395 -925 153 -87 287 -161 364 -202 90 -48
142 -77 381 -211 113 -63 250 -139 305 -170 55 -30 138 -78 185 -106 47 -29
123 -72 170 -96 47 -24 124 -65 172 -91 48 -27 122 -67 165 -90 43 -23 130
-72 193 -107 63 -36 140 -79 170 -95 153 -81 198 -108 220 -132 l25 -27 0
-253 c0 -195 -3 -257 -13 -267 -20 -20 -264 -16 -377 6 -344 65 -439 107
-1145 506 -36 20 -101 57 -145 82 -44 24 -282 158 -530 298 -247 139 -522 293
-610 343 -88 49 -186 105 -218 123 -32 19 -61 34 -64 34 -3 0 -39 20 -80 45
-40 25 -76 45 -80 45 -3 0 -29 14 -57 31 -110 68 -275 149 -303 149 -38 0 -94
-40 -228 -165 -59 -55 -120 -111 -134 -124 -14 -13 -60 -55 -101 -94 -119
-111 -179 -166 -280 -257 -180 -162 -277 -257 -297 -290 -21 -36 -14 -53 82
-202 310 -478 710 -937 1090 -1249 282 -232 543 -401 930 -604 61 -32 136 -73
168 -91 32 -19 60 -34 63 -34 2 0 21 -11 42 -24 74 -47 71 -48 169 76 169 216
303 397 303 411 0 19 -36 49 -100 83 -148 80 -460 264 -650 384 -366 231 -508
339 -701 532 -200 200 -439 487 -439 527 0 19 178 181 214 195 19 7 34 1 82
-31 59 -40 134 -83 464 -266 30 -17 69 -38 85 -47 17 -9 154 -86 305 -170 151
-84 291 -162 310 -173 19 -11 103 -58 185 -104 236 -134 293 -167 395 -224 52
-29 120 -67 150 -84 53 -30 132 -69 235 -115 451 -203 845 -284 1300 -266 286
11 467 41 734 121 760 228 1327 774 1490 1435 107 437 3 940 -268 1295 -115
151 -325 332 -530 456 -36 22 -73 44 -81 49 -14 9 -205 114 -350 192 -154 83
-188 102 -253 139 -38 21 -71 39 -73 39 -3 0 -42 21 -87 47 -45 25 -244 135
-442 243 -198 109 -432 238 -521 287 -88 50 -164 92 -170 94 -58 25 -196 114
-233 151 l-48 48 -6 151 c-9 190 -7 657 1 724 9 65 29 68 114 22 35 -19 88
-48 118 -64 241 -128 538 -303 565 -333 19 -21 20 -42 25 -329 3 -203 9 -315
17 -332 12 -29 69 -65 228 -149 55 -29 105 -56 110 -60 12 -9 178 -97 277
-147 38 -20 72 -32 76 -28 4 3 9 139 12 301 5 309 8 325 49 304 9 -5 48 -24
86 -43 39 -20 90 -47 115 -61 51 -28 91 -50 170 -94 78 -42 339 -189 368 -207
25 -15 122 -70 162 -93 469 -262 614 -359 788 -534 142 -143 208 -225 294
-365 189 -309 298 -686 298 -1034 0 -131 -24 -346 -50 -454 -21 -88 -82 -279
-107 -334 -165 -374 -313 -589 -600 -873 -304 -301 -604 -506 -1117 -762 -65
-33 -120 -66 -123 -73 -6 -15 0 -23 204 -280 85 -106 162 -197 173 -203 10 -5
31 -10 47 -10 69 0 628 303 838 454 66 48 244 184 255 196 3 3 34 30 70 59
141 119 307 296 441 470 248 324 393 574 499 856 134 358 180 681 158 1115
-25 500 -227 1080 -507 1455 -122 163 -396 447 -521 541 -162 120 -218 158
-350 241 -80 49 -172 105 -205 123 -33 18 -97 54 -141 81 -45 27 -84 49 -88
49 -3 0 -38 20 -78 43 -40 24 -163 95 -273 157 -110 62 -256 145 -325 185 -69
40 -242 139 -385 220 -143 81 -312 177 -375 214 -63 36 -122 69 -130 73 -9 3
-47 24 -83 47 -37 23 -70 41 -72 41 -3 0 -81 44 -173 97 -92 53 -201 115 -242
139 -243 136 -553 316 -565 327 -38 38 -42 69 -50 319 l-7 248 30 30 30 30
149 0 c81 0 187 -4 234 -9 101 -11 267 -51 359 -87 76 -30 369 -176 453 -225
31 -19 119 -70 195 -113 75 -44 200 -116 277 -161 202 -118 427 -249 610 -355
88 -51 213 -123 278 -161 65 -38 120 -69 122 -69 3 0 33 -17 67 -38 35 -21
133 -78 218 -126 85 -49 184 -105 220 -126 185 -107 216 -118 262 -97 31 14
86 65 368 341 179 175 367 355 650 622 41 40 90 84 108 99 17 15 32 34 32 43
0 21 -184 296 -306 458 -270 358 -515 611 -849 879 -55 44 -102 82 -105 85
-36 39 -324 234 -495 337 -142 85 -186 109 -405 217 -107 53 -202 101 -211
105 -15 9 -30 -10 -319 -406 -107 -147 -115 -160 -101 -177 5 -6 36 -23 68
-36 85 -34 335 -161 470 -237 65 -36 129 -72 143 -80 151 -84 438 -297 634
-471 117 -105 285 -281 381 -402 33 -41 70 -86 83 -100 12 -14 22 -32 22 -41
0 -23 -317 -319 -341 -319 -10 0 -134 64 -154 80 -5 4 -30 19 -55 32 -25 14
-121 69 -215 123 -93 53 -199 113 -235 133 -36 19 -92 52 -126 72 -68 42 -188
111 -284 162 -36 20 -81 45 -100 56 -19 12 -53 31 -74 43 -21 11 -125 71 -230
131 -595 343 -836 445 -1185 499 -178 27 -652 27 -826 0 -249 -40 -501 -109
-720 -197 -326 -130 -468 -215 -702 -417 -462 -397 -704 -870 -703 -1372 1
-320 80 -610 230 -840 105 -161 276 -341 412 -435 183 -127 237 -161 343 -220
268 -149 507 -289 545 -319 l25 -20 6 -253 c7 -277 15 -316 67 -355 38 -28
346 -195 512 -277 l135 -68 5 329 c3 180 9 333 13 340 17 26 62 7 297 -125 25
-13 135 -74 245 -134 110 -60 217 -126 238 -146 l37 -36 0 -489 c0 -482 -3
-527 -33 -527 -17 0 -90 39 -487 263 -195 110 -427 241 -515 290 -88 49 -191
107 -228 128 -38 22 -70 39 -73 39 -2 0 -41 22 -86 48 -82 48 -231 132 -298
169 -95 53 -153 85 -240 133 -52 29 -99 56 -105 60 -5 4 -35 21 -65 37 -30 16
-145 80 -255 143 -110 62 -222 125 -250 140 -305 166 -472 280 -617 418 -182
176 -320 362 -422 574 -99 205 -148 365 -193 633 -24 140 -24 489 1 635 73
439 209 764 461 1105 175 235 444 500 655 644 19 13 62 42 95 65 60 42 172
111 255 158 88 51 369 188 384 188 6 0 129 56 174 78 17 9 32 21 32 27 0 10
-338 482 -383 536 l-22 26 -45 -22z m708 -2892 c2 -970 1 -1003 -16 -1003 -32
0 -285 134 -404 213 -188 126 -264 205 -345 357 -69 131 -97 240 -97 380 0
102 4 126 32 214 69 211 170 373 334 538 143 144 400 312 468 305 l25 -2 3
-1002z m2468 -3029 c169 -87 173 -89 279 -167 179 -133 295 -283 356 -459 29
-85 32 -104 33 -223 1 -122 -1 -136 -33 -229 -81 -241 -216 -419 -451 -595
-88 -66 -319 -185 -348 -179 -10 2 -19 18 -24 42 -11 51 -6 1857 5 1874 5 6
14 12 22 12 8 0 80 -34 161 -76z"/>
</g>
</svg>
